<?xml version="1.0" ?><svg xmlns="http://www.w3.org/2000/svg" xmlns:xlink="http://www.w3.org/1999/xlink" version="1.0" viewBox="0 0 48 48" enable-background="new 0 0 48 48" xml:space="preserve"><g id="Layer_1"/><g id="_x31_0_x5F_Graph"><path d="M17,37c2.206,0,4-1.794,4-4v-4c0-2.206-1.794-4-4-4s-4,1.794-4,4v4C13,35.206,14.794,37,17,37z M15,29c0-1.103,0.897-2,2-2   s2,0.897,2,2v4c0,1.103-0.897,2-2,2s-2-0.897-2-2V29z M23,24v9c0,2.206,1.794,4,4,4c2.206,0,4-1.794,4-4v-9c0-2.206-1.794-4-4-4   C24.794,20,23,21.794,23,24z M29,24v9c0,1.103-0.897,2-2,2s-2-0.897-2-2v-9c0-1.103,0.897-2,2-2S29,22.897,29,24z M37,15   c-2.206,0-4,1.794-4,4v14c0,2.206,1.794,4,4,4s4-1.794,4-4V19C41,16.794,39.206,15,37,15z M39,33c0,1.103-0.897,2-2,2s-2-0.897-2-2   V19c0-1.103,0.897-2,2-2s2,0.897,2,2V33z M15,20c0-1.103,0.897-2,2-2c0.08,0,0.155,0.014,0.232,0.023L22.2,11.4   c0.332-0.44,0.958-0.531,1.4-0.2l2.615,1.961C26.456,13.058,26.721,13,27,13c0.091,0,0.179,0.015,0.267,0.027l5.944-7.641   c0.176-0.227,0.44-0.367,0.727-0.384c0.299-0.015,0.566,0.089,0.77,0.291l1.782,1.782C36.653,7.031,36.822,7,37,7   c1.103,0,2,0.897,2,2s-0.897,2-2,2s-2-0.897-2-2c0-0.178,0.031-0.347,0.074-0.511l-0.981-0.981l-5.243,6.74   C28.945,14.481,29,14.734,29,15c0,1.103-0.897,2-2,2s-2-0.897-2-2c0-0.08,0.014-0.155,0.024-0.233L23.2,13.4l-4.362,5.815   C18.942,19.456,19,19.721,19,20c0,1.103-0.897,2-2,2S15,21.103,15,20z M38,39H11V10c0-1.654-1.346-3-3-3s-3,1.346-3,3H4   c-0.552,0-1,0.448-1,1s0.448,1,1,1h1v3H4c-0.552,0-1,0.448-1,1s0.448,1,1,1h1v3H4c-0.552,0-1,0.448-1,1s0.448,1,1,1h1v3H4   c-0.552,0-1,0.447-1,1s0.448,1,1,1h1v3H4c-0.552,0-1,0.447-1,1s0.448,1,1,1h1v3H4c-0.552,0-1,0.447-1,1s0.448,1,1,1h1v5   c0,1.654,1.346,3,3,3h30c1.654,0,3-1.346,3-3S39.654,39,38,39z M38,43H8c-0.551,0-1-0.448-1-1V10c0-0.551,0.449-1,1-1s1,0.449,1,1   v30c0,0.553,0.448,1,1,1h28c0.552,0,1,0.448,1,1S38.552,43,38,43z"/></g></svg>